<svg width="151" height="50" viewBox="0 0 151 50" fill="none" xmlns="http://www.w3.org/2000/svg">
<path d="M12.4271 6.77717L9.25213 5.71883C9.46345 5.29092 9.96004 4.02303 9.6413 2.08245C10.9057 2.76042 12.5874 4.16038 12.4271 6.77717ZM6.15636 9.37459C5.72492 9.37459 5.37449 9.02592 5.37449 8.59449C5.37449 8.16129 5.72492 7.81262 6.15636 7.81262C6.58779 7.81262 6.93822 8.16129 6.93822 8.59449C6.93822 9.02592 6.58779 9.37459 6.15636 9.37459ZM47.9229 23.4324C46.6902 18.0438 43.4588 14.182 41.6028 12.3277C41.1889 11.9157 40.636 11.6533 40.0514 11.6498C39.3153 11.6462 38.6426 12.0072 38.2429 12.6077C37.7163 13.3949 37.7692 14.418 38.3732 15.1523C42.4656 20.1358 44.1298 25.0172 43.3162 29.6591C42.3406 35.2343 37.9946 39.1049 35.8656 40.7004V38.036C35.9113 27.1867 33.6186 25.667 29.0524 22.6382C28.4484 22.2367 27.8232 21.8228 27.147 21.3509C21.8113 17.6212 21.1686 15.4763 20.3532 12.7592C19.9658 11.4684 19.5273 10.005 18.5729 8.22468C16.9599 5.21344 14.9418 3.81876 13.1192 3.22179C11.9781 1.35693 9.98821 0.35142 8.6939 0.0238811C8.41567 -0.0465574 8.11983 0.0414907 7.92612 0.252806C7.73066 0.465883 7.66902 0.767007 7.76412 1.0382C8.05467 1.87465 8.16562 2.58784 8.18146 3.17248C7.27633 3.36267 3.6417 4.35409 3.08524 8.05035C2.98839 8.68958 2.62563 9.28831 2.08677 9.68981L0.935103 10.5544C0.200782 11.1039 -0.144367 12.0319 0.0563832 12.9212C0.36279 14.2859 1.3366 16.6474 4.42181 17.1704C4.61904 17.2232 5.23713 17.3676 5.98907 17.2919C6.17221 17.2725 6.35182 17.3429 6.46805 17.4785C6.52792 17.549 6.62125 17.6951 6.56842 17.8977C6.27258 19.0352 5.44669 20.319 4.71765 21.453C1.93885 25.7727 4.43061 31.8586 7.92436 35.6834C9.62369 37.5429 8.04235 42.0281 7.14954 43.9176L4.76872 44.8703C3.77906 45.2665 3.07115 46.191 3.03065 47.2547C2.97606 48.7585 4.18408 50 5.67561 50H9.50395C10.6451 50 11.6541 49.2727 12.0151 48.1933L13.6281 43.3524C13.7074 43.1146 13.6457 42.8611 13.4925 42.6621C13.4925 42.6603 13.4908 42.6603 13.4908 42.6585C12.2968 41.0825 11.64 39.2493 11.64 37.5007C11.64 33.1317 15.8804 28.2504 21.563 28.2222C21.9768 28.2204 22.3502 28.5198 22.3872 28.9318C22.4294 29.3967 22.0631 29.7859 21.6088 29.7859C16.7979 29.7859 13.2037 33.859 13.2037 37.5007C13.2037 38.9112 13.7479 40.4098 14.7375 41.7164C14.7727 41.7622 14.8009 41.8133 14.8238 41.8644C15.6779 42.9632 16.8278 43.9106 18.1925 44.5304L16.016 45.0147C14.9348 45.2542 14.0895 46.1435 13.9856 47.2441C13.8465 48.7392 15.0246 50 16.4914 50H29.2285C34.2419 50 38.8979 47.7689 42.0043 43.8789C47.4703 37.0305 49.462 30.1504 47.9229 23.4324Z" fill="#008037"/>
<path d="M62.1348 32.1542V35.4314C62.1031 36.4052 61.9076 37.2822 61.5501 38.0271C61.2578 38.6768 60.8035 39.2932 60.1555 39.781C59.5057 40.3005 58.6305 40.591 57.4612 40.591C56.2937 40.591 55.385 40.3005 54.7352 39.781C54.0854 39.2932 53.6646 38.6768 53.3722 38.0271C53.0148 37.2822 52.8211 36.4052 52.7876 35.4314V21.3789C52.8211 20.4368 53.0148 19.5616 53.3722 18.8149C53.6646 18.1652 54.0854 17.5171 54.7352 17.0293C55.385 16.5433 56.2937 16.2175 57.4612 16.2175C58.6305 16.2175 59.5057 16.5433 60.1555 17.0293C60.8035 17.5171 61.2578 18.1652 61.5501 18.8149C61.9076 19.5616 62.1031 20.4368 62.1348 21.3789V24.6561H58.8576V21.3789C58.8576 20.7291 58.6939 20.2748 58.3382 19.8856C58.1761 19.7236 57.8838 19.6268 57.5263 19.6268C56.91 19.6268 56.6177 20.0811 56.4557 20.502C56.3588 20.7626 56.3254 21.0549 56.2937 21.3789V35.4314C56.3254 36.1129 56.5208 36.5672 56.8449 36.9247C57.0069 37.0867 57.234 37.1836 57.5263 37.1836C58.273 37.1836 58.5653 36.7944 58.7273 36.3084C58.8242 36.0812 58.8576 35.7889 58.8576 35.4314V32.1542H62.1348Z" fill="#008037"/>
<path d="M73.8506 35.4314C73.8189 36.4052 73.6234 37.2822 73.266 38.0271C72.9736 38.6768 72.5193 39.2932 71.8713 39.781C71.2215 40.3005 70.3463 40.591 69.177 40.591C68.0095 40.591 67.1008 40.3005 66.451 39.781C65.8012 39.2932 65.3804 38.6768 65.0881 38.0271C64.7306 37.2822 64.5369 36.4052 64.5034 35.4314V21.3789C64.5369 20.4368 64.7306 19.5616 65.0881 18.8149C65.3804 18.1652 65.8012 17.5171 66.451 17.0293C67.1008 16.5433 68.0095 16.2175 69.177 16.2175C70.3463 16.2175 71.2215 16.5433 71.8713 17.0293C72.5193 17.5171 72.9736 18.1652 73.266 18.8149C73.6234 19.5616 73.8189 20.4368 73.8506 21.3789V35.4314ZM70.3463 21.3789C70.3463 20.7291 70.216 20.2748 69.892 19.8856C69.7282 19.7236 69.4693 19.6268 69.177 19.6268C68.5607 19.6268 68.2684 20.0811 68.138 20.502C68.0412 20.7626 68.0095 21.0549 68.0095 21.3789V35.4314C68.0095 36.1129 68.1715 36.5672 68.4955 36.9247C68.6575 37.0867 68.8847 37.1836 69.177 37.1836C69.7933 37.1836 70.0857 36.7944 70.216 36.3084C70.3128 36.0812 70.3463 35.7889 70.3463 35.4314V21.3789Z" fill="#008037"/>
<path d="M76.7056 16.4783H80.2116V40.3323H76.7056V16.4783Z" fill="#008037"/>
<path d="M86.9932 27.9016L86.7009 26.7993H86.5072V40.3323H83.2935V16.4783H86.4086L89.8178 28.9089L90.1101 30.0113H90.3038V16.4783H93.5176V40.3323H90.4007L86.9932 27.9016Z" fill="#008037"/>
<path d="M95.6255 40.3323L99.2284 16.4783H103.513L107.116 40.3323H103.707L103.059 35.4632H99.6827L99.033 40.3323H95.6255ZM101.565 24.2353L101.468 23.619H101.273L101.176 24.2353L100.171 31.7634H102.571L101.565 24.2353Z" fill="#008037"/>
<path d="M109.223 16.4783H112.729V37.0868H117.369V40.3323H109.223V16.4783Z" fill="#008037"/>
<path d="M119.284 16.4783H127.3V20.0812H122.79V26.3449H126.035V30.1733H122.79V36.7293H127.3V40.3323H119.284V16.4783Z" fill="#008037"/>
<path d="M135.998 40.3323L134.18 30.2719H133.24V40.3323H129.734V16.4783H133.24C137.426 16.4783 139.211 18.8468 139.211 23.3584C139.211 25.7268 138.595 27.8699 137.264 28.7786L139.504 40.3323H135.998ZM133.24 27.0264C133.726 27.0264 134.376 26.9613 134.895 26.507C135.413 26.0526 135.836 25.1757 135.836 23.4887C135.836 21.7999 135.413 20.8912 134.895 20.4369C134.376 19.9826 133.726 19.9509 133.24 19.9509V27.0264Z" fill="#008037"/>
<path d="M140.704 20.0812V16.4783H150.829V20.0812H147.519V40.3323H144.014V20.0812H140.704Z" fill="#008037"/>
</svg>
