<svg width="49" height="50" viewBox="0 0 49 50" fill="none" xmlns="http://www.w3.org/2000/svg">
<path d="M12.4271 6.77717L9.25213 5.71883C9.46345 5.29092 9.96004 4.02303 9.6413 2.08245C10.9057 2.76042 12.5874 4.16038 12.4271 6.77717ZM6.15636 9.37459C5.72492 9.37459 5.37449 9.02592 5.37449 8.59449C5.37449 8.16129 5.72492 7.81262 6.15636 7.81262C6.58779 7.81262 6.93822 8.16129 6.93822 8.59449C6.93822 9.02592 6.58779 9.37459 6.15636 9.37459ZM47.9229 23.4324C46.6902 18.0438 43.4588 14.182 41.6028 12.3277C41.1889 11.9157 40.636 11.6533 40.0514 11.6498C39.3153 11.6462 38.6426 12.0072 38.2429 12.6077C37.7163 13.3949 37.7692 14.418 38.3732 15.1523C42.4656 20.1358 44.1298 25.0172 43.3162 29.6591C42.3406 35.2343 37.9946 39.1049 35.8656 40.7004V38.036C35.9113 27.1867 33.6186 25.667 29.0524 22.6382C28.4484 22.2367 27.8232 21.8228 27.147 21.3509C21.8113 17.6212 21.1686 15.4763 20.3532 12.7592C19.9658 11.4684 19.5273 10.005 18.5729 8.22468C16.9599 5.21344 14.9418 3.81876 13.1192 3.22179C11.9781 1.35693 9.98821 0.35142 8.6939 0.0238811C8.41567 -0.0465574 8.11983 0.0414907 7.92612 0.252806C7.73066 0.465883 7.66902 0.767007 7.76412 1.0382C8.05467 1.87465 8.16562 2.58784 8.18146 3.17248C7.27633 3.36267 3.6417 4.35409 3.08524 8.05035C2.98839 8.68958 2.62563 9.28831 2.08677 9.68981L0.935103 10.5544C0.200782 11.1039 -0.144367 12.0319 0.0563832 12.9212C0.36279 14.2859 1.3366 16.6474 4.42181 17.1704C4.61904 17.2232 5.23713 17.3676 5.98907 17.2919C6.17221 17.2725 6.35182 17.3429 6.46805 17.4785C6.52792 17.549 6.62125 17.6951 6.56842 17.8977C6.27258 19.0352 5.44669 20.319 4.71765 21.453C1.93885 25.7727 4.43061 31.8586 7.92436 35.6834C9.62369 37.5429 8.04235 42.0281 7.14954 43.9176L4.76872 44.8703C3.77906 45.2665 3.07115 46.191 3.03065 47.2547C2.97606 48.7585 4.18408 50 5.67561 50H9.50395C10.6451 50 11.6541 49.2727 12.0151 48.1933L13.6281 43.3524C13.7074 43.1146 13.6457 42.8611 13.4925 42.6621C13.4925 42.6603 13.4908 42.6603 13.4908 42.6585C12.2968 41.0825 11.64 39.2493 11.64 37.5007C11.64 33.1317 15.8804 28.2504 21.563 28.2222C21.9768 28.2204 22.3502 28.5198 22.3872 28.9318C22.4294 29.3967 22.0631 29.7859 21.6088 29.7859C16.7979 29.7859 13.2037 33.859 13.2037 37.5007C13.2037 38.9112 13.7479 40.4098 14.7375 41.7164C14.7727 41.7622 14.8009 41.8133 14.8238 41.8644C15.6779 42.9632 16.8278 43.9106 18.1925 44.5304L16.016 45.0147C14.9348 45.2542 14.0895 46.1435 13.9856 47.2441C13.8465 48.7392 15.0246 50 16.4914 50H29.2285C34.2419 50 38.8979 47.7689 42.0043 43.8789C47.4703 37.0305 49.462 30.1504 47.9229 23.4324Z" fill="#9E9E9E"/>
</svg>
